#!OML:ASF H:\Terrain\Patient Classification 1\Terrain2\Thursday\justin.ASF
:FULLY-SPECIFIED
:DEGREES
244
root 9.45858 22.3661 -4.60323 7.50306 -5.20917 -3.84111
lowerback 16.722 3.01299 1.2989
upperback 3.60975 4.21676 0.828967
thorax -5.46153 2.03969 -0.740135
lowerneck -17.6107 -3.25873 -9.03743
upperneck 22.2277 -3.71943 7.00775
head 10.3218 -1.65172 3.49014
rclavicle -2.04748e-014 2.08724e-015
rhumerus -22.9561 -2.88767 -83.7119
rradius 39.3053
rwrist -10.4409
rhand -18.0861 9.81189
rfingers 7.12502
rthumb 8.18725 -20.0095
lclavicle -2.04748e-014 2.08724e-015
lhumerus -32.9682 3.11838 83.105
lradius 42.4983
lwrist 6.67112
lhand -17.3716 21.3583
lfingers 7.12502
lthumb 8.87674 51.1516
rfemur -27.9604 -11.0967 21.5533
rtibia 86.5593
rfoot 13.2557 -4.63168
rtoes 4.92079
lfemur -43.7785 0.623676 -17.7847
ltibia 60.224
lfoot -20.6099 -4.43223
ltoes -1.09391
245
root 9.4653 22.4306 -4.4831 7.32208 -5.33781 -3.72694
lowerback 16.5069 2.99271 1.16152
upperback 3.50143 4.16973 0.87304
thorax -5.47505 2.01917 -0.598767
lowerneck -17.3277 -3.2386 -9.19644
upperneck 22.1968 -3.74515 7.29894
head 10.2679 -1.64848 3.61913
rclavicle 5.25288e-014 -1.86858e-014
rhumerus -23.1574 -3.22272 -83.5588
rradius 39.1311
rwrist -10.552
rhand -18.1088 10.1474
rfingers 7.12502
rthumb 8.16534 -19.6748
lclavicle 5.25288e-014 -1.86858e-014
lhumerus -32.9853 2.83742 83.3171
lradius 41.9916
lwrist 9.62243
lhand -21.156 17.5837
lfingers 7.12502
lthumb 5.22369 47.4993
rfemur -29.3669 -11.3256 21.6144
rtibia 88.6932
rfoot 11.923 -3.70616
rtoes 3.46628
lfemur -42.5727 0.510342 -17.9457
ltibia 59.3626
lfoot -20.5623 -4.22333
ltoes -1.36482
246
root 9.47084 22.4884 -4.36614 7.05349 -5.44789 -3.4778
lowerback 16.4487 2.93151 0.902388
upperback 3.44726 4.04752 0.889695
thorax -5.5223 1.96298 -0.409529
lowerneck -17.3472 -3.27517 -9.34672
upperneck 22.2756 -3.79779 7.46014
head 10.3115 -1.66738 3.6974
rclavicle 2.84262e-014 -1.21259e-014
rhumerus -23.2185 -3.20204 -83.5527
rradius 39.0494
rwrist -11.2735
rhand -18.7352 10.3392
rfingers 7.12502
rthumb 7.56071 -19.5057
lclavicle 2.84262e-014 -1.21259e-014
lhumerus -32.7815 3.71888 82.8221
lradius 42.2773
lwrist 7.19545
lhand -18.0049 21.4788
lfingers 7.12502
lthumb 8.2656 51.2971
rfemur -30.5657 -11.4088 21.4331
rtibia 90.7031
rfoot 10.4882 -3.11966
rtoes 3.74678
lfemur -41.3276 0.320198 -18.2432
ltibia 58.4761
lfoot -21.2028 -4.17283
ltoes 1.78929
247
root 9.47567 22.5398 -4.24921 6.86762 -5.59348 -3.37928
lowerback 16.21 2.8511 0.791623
upperback 3.44616 3.92327 0.921274
thorax -5.40538 1.90595 -0.276026
lowerneck -17.5765 -3.27089 -9.18599
upperneck 22.4784 -3.77246 7.24563
head 10.4186 -1.6644 3.59975
rclavicle 2.8128e-014 6.95746e-015
rhumerus -23.0871 -3.14285 -83.5869
rradius 38.8408
rwrist -11.8057
rhand -19.1637 10.5616
rfingers 7.12502
rthumb 7.14714 -19.2978
lclavicle 2.8128e-014 6.95746e-015
lhumerus -32.5479 4.28885 82.5328
lradius 42.3195
lwrist 6.49318
lhand -17.2455 22.7653
lfingers 7.12502
lthumb 8.99849 52.5534
rfemur -31.7586 -11.2817 21.4163
rtibia 92.5596
rfoot 9.04888 -1.66442
rtoes 1.07657
lfemur -40.2159 0.224622 -18.395
ltibia 57.6211
lfoot -21.5012 -3.92469
ltoes 2.72626
248
root 9.48164 22.595 -4.12841 6.60913 -5.77428 -3.49713
lowerback 15.994 2.79449 0.946175
upperback 3.43968 3.87703 0.993487
thorax -5.29068 1.88331 -0.266345
lowerneck -17.5981 -3.20301 -8.9544
upperneck 22.5918 -3.68421 6.99782
head 10.4457 -1.63361 3.48538
rclavicle -1.7344e-014 -5.96354e-016
rhumerus -23.033 -3.59846 -83.3282
rradius 38.4716
rwrist -11.1882
rhand -18.0989 11.1079
rfingers 7.12502
rthumb 8.17484 -18.714
lclavicle -1.7344e-014 -5.96354e-016
lhumerus -32.4721 4.55221 82.3545
lradius 42.3109
lwrist 6.689
lhand -17.4758 22.6515
lfingers 7.12502
lthumb 8.77626 52.449
rfemur -32.9525 -11.0636 21.7256
rtibia 94.1794
rfoot 7.53987 0.17034
rtoes -5.91004
lfemur -38.9237 0.194576 -18.2998
ltibia 56.7958
lfoot -21.7423 -3.75454
ltoes 2.78855
249
root 9.4876 22.6544 -4.00537 6.19798 -5.95852 -3.4486
lowerback 16.0144 2.76615 0.964258
upperback 3.37951 3.84689 1.02923
thorax -5.36721 1.8677 -0.23578
lowerneck -17.5628 -3.14581 -8.94909
upperneck 22.8459 -3.62015 6.99692
head 10.5251 -1.60655 3.49921
rclavicle 1.54058e-015 -1.2921e-014
rhumerus -23.2799 -4.03031 -83.0381
rradius 38.235
rwrist -10.6544
rhand -17.2825 11.5631
rfingers 7.12502
rthumb 8.96273 -18.2265
lclavicle 1.54058e-015 -1.2921e-014
lhumerus -32.6179 4.55738 82.2423
lradius 42.4506
lwrist 7.08021
lhand -17.5495 22.4378
lfingers 7.12502
lthumb 8.70508 52.2383
rfemur -33.9555 -10.8305 21.7942
rtibia 95.6078
rfoot 6.21597 0.434226
rtoes -7.00402
lfemur -37.4038 0.105442 -18.3817
ltibia 55.9568
lfoot -21.8443 -3.83552
ltoes 4.57813
250
root 9.4922 22.7107 -3.88933 5.8942 -6.09839 -3.20545
lowerback 16.0328 2.71877 0.762945
upperback 3.27096 3.7522 0.995247
thorax -5.50377 1.8229 -0.143802
lowerneck -17.8355 -3.10638 -8.91751
upperneck 23.4433 -3.59092 7.04896
head 10.7939 -1.58403 3.53077
rclavicle 6.6245e-014 4.96962e-015
rhumerus -23.6707 -3.82335 -83.1381
rradius 38.2431
rwrist -11.3391
rhand -18.3692 11.6021
rfingers 7.12502
rthumb 7.91401 -18.2297
lclavicle 6.6245e-014 4.96962e-015
lhumerus -32.6705 4.48803 82.1268
lradius 42.433
lwrist 7.6159
lhand -18.0101 22.5127
lfingers 7.12502
lthumb 8.26055 52.3312
rfemur -35.0581 -10.6769 21.6675
rtibia 96.9154
rfoot 5.28044 -0.791025
rtoes 1.13648
lfemur -36.1368 0.0383073 -18.7392
ltibia 55.1194
lfoot -21.8504 -3.44742
ltoes 4.02109
